{
	"patcher" : 	{
		"fileversion" : 1,
		"appversion" : 		{
			"major" : 7,
			"minor" : 3,
			"revision" : 4,
			"architecture" : "x64",
			"modernui" : 1
		}
,
		"rect" : [ 42.0, 85.0, 1212.0, 609.0 ],
		"bglocked" : 0,
		"openinpresentation" : 0,
		"default_fontsize" : 12.0,
		"default_fontface" : 0,
		"default_fontname" : "Arial",
		"gridonopen" : 1,
		"gridsize" : [ 15.0, 15.0 ],
		"gridsnaponopen" : 1,
		"objectsnaponopen" : 1,
		"statusbarvisible" : 2,
		"toolbarvisible" : 1,
		"lefttoolbarpinned" : 0,
		"toptoolbarpinned" : 0,
		"righttoolbarpinned" : 0,
		"bottomtoolbarpinned" : 0,
		"toolbars_unpinned_last_save" : 0,
		"tallnewobj" : 0,
		"boxanimatetime" : 200,
		"enablehscroll" : 1,
		"enablevscroll" : 1,
		"devicewidth" : 0.0,
		"description" : "",
		"digest" : "",
		"tags" : "",
		"style" : "",
		"subpatcher_template" : "",
		"boxes" : [ 			{
				"box" : 				{
					"id" : "obj-15",
					"maxclass" : "newobj",
					"numinlets" : 1,
					"numoutlets" : 1,
					"outlettype" : [ "FullPacket" ],
					"patcher" : 					{
						"fileversion" : 1,
						"appversion" : 						{
							"major" : 7,
							"minor" : 3,
							"revision" : 4,
							"architecture" : "x64",
							"modernui" : 1
						}
,
						"rect" : [ 67.0, 110.0, 640.0, 480.0 ],
						"bglocked" : 0,
						"openinpresentation" : 0,
						"default_fontsize" : 12.0,
						"default_fontface" : 0,
						"default_fontname" : "Arial",
						"gridonopen" : 1,
						"gridsize" : [ 15.0, 15.0 ],
						"gridsnaponopen" : 1,
						"objectsnaponopen" : 1,
						"statusbarvisible" : 2,
						"toolbarvisible" : 1,
						"lefttoolbarpinned" : 0,
						"toptoolbarpinned" : 0,
						"righttoolbarpinned" : 0,
						"bottomtoolbarpinned" : 0,
						"toolbars_unpinned_last_save" : 0,
						"tallnewobj" : 0,
						"boxanimatetime" : 200,
						"enablehscroll" : 1,
						"enablevscroll" : 1,
						"devicewidth" : 0.0,
						"description" : "",
						"digest" : "",
						"tags" : "",
						"style" : "",
						"subpatcher_template" : "",
						"boxes" : [ 							{
								"box" : 								{
									"fontface" : 0,
									"fontsize" : 12.0,
									"id" : "obj-117",
									"linecount" : 82,
									"maxclass" : "o.expr.codebox",
									"numinlets" : 1,
									"numoutlets" : 2,
									"outlettype" : [ "FullPacket", "FullPacket" ],
									"patching_rect" : [ 50.0, 100.0, 471.0, 1133.0 ],
									"text" : "#ray's audio --> color code\n/red ??= 0.,\n/green ??= 0.,\n/blue ??= 0.,\n\nif(/y < 1. && /x < 1.,\n   progn(/red = /y,\n         /blue = 0.,\n         /green = /y * /x\n   )\n),\nif(/y < 1. && /x >= 1. && /x < 2.,\n   progn(/green = /y,\n         /blue = 0.,\n         /red = /y * (2.- /x)\n   )\n),\nif(/y < 1. && /x >= 2. && /x < 3.,\n   progn(/red = 0.,\n         /blue = /y * (/x + 2.),\n         /green = /y\n   )\n),\nif(/y < 1. && /x >= 3. && /x < 4.,\n   progn(/red = 0.,\n         /blue = /y,\n         /green = /y * (4. - /x)\n   )\n),\nif(/y < 1. && /x >= 4. && /x < 5.,\n   progn(/red = /y * (4. + /x),\n         /blue = /y,\n         /green = 0.\n   )\n),\nif(/y < 1. && /x >= 5.,\n   progn(/red = /y,\n         /blue = /y * (6. - /x),\n         /green = 0.\n   )\n),\n\nif(/y >= 1. && /x < 1.,\n   progn(/red = 1.,\n         /blue = /y - 1.,\n         /green = /x\n   )\n),\nif(/y >= 1. && /x >= 1. && /x < 2.,\n   progn(/green = 1.,\n         /blue = /y - 1.,\n         /red = 2.- /x\n   )\n),\nif(/y >= 1. && /x >= 2. && /x < 3.,\n   progn(/red = /y - 1.,\n         /blue = /x - 2.,\n         /green = 1.\n   )\n),\nif(/y >= 1. && /x >= 3. && /x < 4.,\n   progn(/red = /y - 1.,\n         /blue = 1.,\n         /green = (4. - /x)\n   )\n),\nif(/y >= 1. && /x >= 4. && /x < 5.,\n   progn(/red = /x - 4.,\n         /blue = 1.,\n         /green = /y - 1.\n   )\n),\nif(/y >= 1. && /x >= 5.,\n   progn(/red = 1.,\n         /blue = 6. - /x,\n         /green = /y - 1.\n   )\n),\n\n#make sequence\n/color = [/red, /green, /blue],\n/color = clip(/color, 0, 1.1)"
								}

							}
, 							{
								"box" : 								{
									"comment" : "",
									"id" : "obj-9",
									"index" : 1,
									"maxclass" : "inlet",
									"numinlets" : 0,
									"numoutlets" : 1,
									"outlettype" : [ "FullPacket" ],
									"patching_rect" : [ 50.0, 40.0, 30.0, 30.0 ],
									"style" : ""
								}

							}
, 							{
								"box" : 								{
									"comment" : "",
									"id" : "obj-13",
									"index" : 1,
									"maxclass" : "outlet",
									"numinlets" : 1,
									"numoutlets" : 0,
									"patching_rect" : [ 50.0, 1293.0, 30.0, 30.0 ],
									"style" : ""
								}

							}
 ],
						"lines" : [ 							{
								"patchline" : 								{
									"destination" : [ "obj-13", 0 ],
									"source" : [ "obj-117", 0 ]
								}

							}
, 							{
								"patchline" : 								{
									"destination" : [ "obj-117", 0 ],
									"source" : [ "obj-9", 0 ]
								}

							}
 ]
					}
,
					"patching_rect" : [ 168.0, 621.0, 94.0, 22.0 ],
					"saved_object_attributes" : 					{
						"description" : "",
						"digest" : "",
						"globalpatchername" : "",
						"style" : "",
						"tags" : ""
					}
,
					"style" : "",
					"text" : "p audio-to-color"
				}

			}
, 			{
				"box" : 				{
					"id" : "obj-3",
					"maxclass" : "newobj",
					"numinlets" : 1,
					"numoutlets" : 2,
					"outlettype" : [ "", "FullPacket" ],
					"patching_rect" : [ 168.0, 652.0, 85.0, 22.0 ],
					"style" : "",
					"text" : "o.select /color"
				}

			}
, 			{
				"box" : 				{
					"fontface" : 1,
					"id" : "obj-12",
					"maxclass" : "comment",
					"numinlets" : 1,
					"numoutlets" : 0,
					"patching_rect" : [ 191.5, 7.0, 89.0, 20.0 ],
					"style" : "",
					"text" : "AUDIO INPUT"
				}

			}
, 			{
				"box" : 				{
					"fontface" : 1,
					"id" : "obj-11",
					"maxclass" : "comment",
					"numinlets" : 1,
					"numoutlets" : 0,
					"patching_rect" : [ 684.5, 7.0, 89.0, 20.0 ],
					"style" : "",
					"text" : "FX # (1-10)"
				}

			}
, 			{
				"box" : 				{
					"comment" : "",
					"id" : "obj-26",
					"index" : 1,
					"maxclass" : "outlet",
					"numinlets" : 1,
					"numoutlets" : 0,
					"patching_rect" : [ 683.0, 1760.0, 30.0, 30.0 ],
					"style" : ""
				}

			}
, 			{
				"box" : 				{
					"id" : "obj-25",
					"maxclass" : "newobj",
					"numinlets" : 1,
					"numoutlets" : 2,
					"outlettype" : [ "", "FullPacket" ],
					"patching_rect" : [ 683.0, 1728.0, 76.0, 22.0 ],
					"style" : "",
					"text" : "o.select /rgb"
				}

			}
, 			{
				"box" : 				{
					"id" : "obj-1",
					"maxclass" : "newobj",
					"numinlets" : 1,
					"numoutlets" : 2,
					"outlettype" : [ "", "FullPacket" ],
					"patching_rect" : [ 714.0, 1471.5, 100.0, 22.0 ],
					"style" : "",
					"text" : "o.select /fx_color"
				}

			}
, 			{
				"box" : 				{
					"id" : "obj-4",
					"maxclass" : "newobj",
					"numinlets" : 1,
					"numoutlets" : 1,
					"outlettype" : [ "float" ],
					"patcher" : 					{
						"fileversion" : 1,
						"appversion" : 						{
							"major" : 7,
							"minor" : 3,
							"revision" : 4,
							"architecture" : "x64",
							"modernui" : 1
						}
,
						"rect" : [ 67.0, 110.0, 640.0, 480.0 ],
						"bglocked" : 0,
						"openinpresentation" : 0,
						"default_fontsize" : 12.0,
						"default_fontface" : 0,
						"default_fontname" : "Arial",
						"gridonopen" : 1,
						"gridsize" : [ 15.0, 15.0 ],
						"gridsnaponopen" : 1,
						"objectsnaponopen" : 1,
						"statusbarvisible" : 2,
						"toolbarvisible" : 1,
						"lefttoolbarpinned" : 0,
						"toptoolbarpinned" : 0,
						"righttoolbarpinned" : 0,
						"bottomtoolbarpinned" : 0,
						"toolbars_unpinned_last_save" : 0,
						"tallnewobj" : 0,
						"boxanimatetime" : 200,
						"enablehscroll" : 1,
						"enablevscroll" : 1,
						"devicewidth" : 0.0,
						"description" : "",
						"digest" : "",
						"tags" : "",
						"style" : "",
						"subpatcher_template" : "",
						"boxes" : [ 							{
								"box" : 								{
									"comment" : "",
									"id" : "obj-1",
									"index" : 1,
									"maxclass" : "inlet",
									"numinlets" : 0,
									"numoutlets" : 1,
									"outlettype" : [ "signal" ],
									"patching_rect" : [ 50.0, 40.0, 30.0, 30.0 ],
									"style" : ""
								}

							}
, 							{
								"box" : 								{
									"comment" : "",
									"id" : "obj-2",
									"index" : 1,
									"maxclass" : "outlet",
									"numinlets" : 1,
									"numoutlets" : 0,
									"patching_rect" : [ 50.0, 234.5, 30.0, 30.0 ],
									"style" : ""
								}

							}
, 							{
								"box" : 								{
									"id" : "obj-104",
									"maxclass" : "newobj",
									"numinlets" : 3,
									"numoutlets" : 1,
									"outlettype" : [ "signal" ],
									"patching_rect" : [ 50.0, 173.5, 62.0, 22.0 ],
									"style" : "",
									"text" : "clip~ 0. 1."
								}

							}
, 							{
								"box" : 								{
									"id" : "obj-95",
									"maxclass" : "newobj",
									"numinlets" : 3,
									"numoutlets" : 1,
									"outlettype" : [ "signal" ],
									"patching_rect" : [ 50.0, 111.5, 66.0, 22.0 ],
									"style" : "",
									"text" : "clip~ -1. 1."
								}

							}
, 							{
								"box" : 								{
									"id" : "obj-43",
									"maxclass" : "newobj",
									"numinlets" : 2,
									"numoutlets" : 1,
									"outlettype" : [ "float" ],
									"patching_rect" : [ 50.0, 206.5, 83.0, 22.0 ],
									"style" : "",
									"text" : "snapshot~ 10"
								}

							}
, 							{
								"box" : 								{
									"id" : "obj-41",
									"maxclass" : "newobj",
									"numinlets" : 3,
									"numoutlets" : 1,
									"outlettype" : [ "signal" ],
									"patching_rect" : [ 50.0, 141.5, 158.0, 22.0 ],
									"style" : "",
									"text" : "rampsmooth~ 11000 11000"
								}

							}
, 							{
								"box" : 								{
									"id" : "obj-40",
									"maxclass" : "newobj",
									"numinlets" : 1,
									"numoutlets" : 1,
									"outlettype" : [ "signal" ],
									"patching_rect" : [ 50.0, 79.5, 37.0, 22.0 ],
									"style" : "",
									"text" : "abs~"
								}

							}
 ],
						"lines" : [ 							{
								"patchline" : 								{
									"destination" : [ "obj-40", 0 ],
									"source" : [ "obj-1", 0 ]
								}

							}
, 							{
								"patchline" : 								{
									"destination" : [ "obj-43", 0 ],
									"source" : [ "obj-104", 0 ]
								}

							}
, 							{
								"patchline" : 								{
									"destination" : [ "obj-95", 0 ],
									"source" : [ "obj-40", 0 ]
								}

							}
, 							{
								"patchline" : 								{
									"destination" : [ "obj-104", 0 ],
									"source" : [ "obj-41", 0 ]
								}

							}
, 							{
								"patchline" : 								{
									"destination" : [ "obj-2", 0 ],
									"source" : [ "obj-43", 0 ]
								}

							}
, 							{
								"patchline" : 								{
									"destination" : [ "obj-41", 0 ],
									"source" : [ "obj-95", 0 ]
								}

							}
 ]
					}
,
					"patching_rect" : [ 14.0, 94.5, 129.0, 22.0 ],
					"saved_object_attributes" : 					{
						"description" : "",
						"digest" : "",
						"globalpatchername" : "",
						"style" : "",
						"tags" : ""
					}
,
					"style" : "",
					"text" : "p AMP DETECTION"
				}

			}
, 			{
				"box" : 				{
					"bgcolor" : [ 0.45098, 0.513725, 0.521569, 1.0 ],
					"id" : "obj-10",
					"linecount" : 2,
					"maxclass" : "comment",
					"numinlets" : 1,
					"numoutlets" : 0,
					"patching_rect" : [ 127.0, 215.0, 150.0, 34.0 ],
					"style" : "",
					"text" : "NORMALIZE INPUT SIGNAL AMP",
					"textcolor" : [ 1.0, 1.0, 1.0, 1.0 ]
				}

			}
, 			{
				"box" : 				{
					"bgcolor" : [ 0.45098, 0.513725, 0.521569, 1.0 ],
					"id" : "obj-6",
					"linecount" : 2,
					"maxclass" : "comment",
					"numinlets" : 1,
					"numoutlets" : 0,
					"patching_rect" : [ 448.0, 215.0, 150.0, 34.0 ],
					"style" : "",
					"text" : "NORMALIZE INPUT SIGNAL FREQPEAK",
					"textcolor" : [ 1.0, 1.0, 1.0, 1.0 ]
				}

			}
, 			{
				"box" : 				{
					"id" : "obj-14",
					"maxclass" : "newobj",
					"numinlets" : 1,
					"numoutlets" : 2,
					"outlettype" : [ "", "FullPacket" ],
					"patching_rect" : [ 347.0, 490.0, 76.0, 22.0 ],
					"style" : "",
					"text" : "o.route /out"
				}

			}
, 			{
				"box" : 				{
					"id" : "obj-16",
					"maxclass" : "newobj",
					"numinlets" : 1,
					"numoutlets" : 2,
					"outlettype" : [ "", "" ],
					"patching_rect" : [ 347.0, 453.400024, 29.5, 22.0 ],
					"style" : "",
					"text" : "t l l"
				}

			}
, 			{
				"box" : 				{
					"id" : "obj-18",
					"maxclass" : "newobj",
					"numinlets" : 2,
					"numoutlets" : 1,
					"outlettype" : [ "FullPacket" ],
					"patching_rect" : [ 347.0, 215.0, 50.0, 22.0 ],
					"style" : "",
					"text" : "o.union"
				}

			}
, 			{
				"box" : 				{
					"id" : "obj-19",
					"maxclass" : "newobj",
					"numinlets" : 1,
					"numoutlets" : 1,
					"outlettype" : [ "FullPacket" ],
					"patching_rect" : [ 347.0, 164.0, 76.0, 22.0 ],
					"style" : "",
					"text" : "o.pack /in"
				}

			}
, 			{
				"box" : 				{
					"fontface" : 0,
					"fontsize" : 12.0,
					"id" : "obj-20",
					"linecount" : 12,
					"maxclass" : "o.expr.codebox",
					"numinlets" : 1,
					"numoutlets" : 2,
					"outlettype" : [ "FullPacket", "FullPacket" ],
					"patching_rect" : [ 347.0, 257.0, 309.0, 182.0 ],
					"text" : "/streamlength ??= 25,\n/idx = aseq(0, /streamlength - 1),\n\n/stream/list ??= [],\n/stream/list = [ /in, /stream/list ],\n\nif( length(/stream/list) > 25, \n  /stream/list = /stream/list[[ /idx ]] \n),\n\n/stream/mean = avg( /stream/list ),\n/out = (/stream/mean / 84) * 6"
				}

			}
, 			{
				"box" : 				{
					"id" : "obj-227",
					"maxclass" : "newobj",
					"numinlets" : 1,
					"numoutlets" : 2,
					"outlettype" : [ "", "FullPacket" ],
					"patching_rect" : [ 14.0, 490.0, 71.0, 22.0 ],
					"style" : "",
					"text" : "o.route /out"
				}

			}
, 			{
				"box" : 				{
					"color" : [ 0.371219, 0.357216, 0.334773, 0.901961 ],
					"id" : "obj-219",
					"maxclass" : "newobj",
					"numinlets" : 1,
					"numoutlets" : 2,
					"outlettype" : [ "", "" ],
					"patching_rect" : [ 14.0, 453.400024, 29.5, 22.0 ],
					"style" : "",
					"text" : "t l l"
				}

			}
, 			{
				"box" : 				{
					"id" : "obj-223",
					"maxclass" : "newobj",
					"numinlets" : 2,
					"numoutlets" : 1,
					"outlettype" : [ "FullPacket" ],
					"patching_rect" : [ 14.0, 215.0, 50.0, 22.0 ],
					"style" : "",
					"text" : "o.union"
				}

			}
, 			{
				"box" : 				{
					"id" : "obj-225",
					"maxclass" : "newobj",
					"numinlets" : 1,
					"numoutlets" : 1,
					"outlettype" : [ "FullPacket" ],
					"patching_rect" : [ 14.0, 130.0, 76.0, 22.0 ],
					"style" : "",
					"text" : "o.pack /in"
				}

			}
, 			{
				"box" : 				{
					"fontface" : 0,
					"fontsize" : 12.0,
					"id" : "obj-226",
					"linecount" : 12,
					"maxclass" : "o.expr.codebox",
					"numinlets" : 1,
					"numoutlets" : 2,
					"outlettype" : [ "FullPacket", "FullPacket" ],
					"patching_rect" : [ 14.0, 257.0, 309.0, 182.0 ],
					"text" : "/streamlength ??= 25,\n/idx = aseq(0, /streamlength - 1),\n\n/stream/list ??= [],\n/stream/list = [ /in, /stream/list ],\n\nif( length(/stream/list) > 25, \n  /stream/list = /stream/list[[ /idx ]] \n),\n\n/stream/mean = avg( /stream/list ),\n/out = /stream/mean * 2"
				}

			}
, 			{
				"box" : 				{
					"id" : "obj-220",
					"maxclass" : "newobj",
					"numinlets" : 2,
					"numoutlets" : 1,
					"outlettype" : [ "FullPacket" ],
					"patching_rect" : [ 683.0, 1499.0, 50.0, 22.0 ],
					"style" : "",
					"text" : "o.union"
				}

			}
, 			{
				"box" : 				{
					"fontface" : 0,
					"fontsize" : 12.0,
					"id" : "obj-188",
					"linecount" : 13,
					"maxclass" : "o.expr.codebox",
					"numinlets" : 1,
					"numoutlets" : 2,
					"outlettype" : [ "FullPacket", "FullPacket" ],
					"patching_rect" : [ 683.0, 1527.5, 475.0, 195.0 ],
					"text" : "# init\n/color ??= [1, 1, 1],\n/fx_color ??= [1, 1, 1],\n\n# color handling\n/scaleinputcolor = scale(/color, 0., 1, 0, 10),\n/r = (/scaleinputcolor[[0]] * /fx_color[[0]]),\n/g = (/scaleinputcolor[[1]] * /fx_color[[1]]),\n/b = (/scaleinputcolor[[2]] * /fx_color[[2]]),\n/scalecolor = [/r, /g, /b],\n/scaled = scale(/scalecolor, 0., 2550., 0, 255),\n/finalcolor = int32(/scaled [[0,1,2]]),\n/rgb = /finalcolor"
				}

			}
, 			{
				"box" : 				{
					"id" : "obj-214",
					"maxclass" : "newobj",
					"numinlets" : 1,
					"numoutlets" : 1,
					"outlettype" : [ "FullPacket" ],
					"patching_rect" : [ 714.0, 85.0, 75.0, 22.0 ],
					"style" : "",
					"text" : "o.pack /fx/id"
				}

			}
, 			{
				"box" : 				{
					"fontface" : 0,
					"fontsize" : 12.0,
					"id" : "obj-209",
					"linecount" : 97,
					"maxclass" : "o.expr.codebox",
					"numinlets" : 1,
					"numoutlets" : 2,
					"outlettype" : [ "FullPacket", "FullPacket" ],
					"patching_rect" : [ 714.0, 128.5, 460.0, 1337.0 ],
					"text" : "# initialize new rgb vals \n# /fx/id is FX number\n/fx/id ??= 0,\n\n/new/r = 0,\n/new/g = 0,\n/new/b = 0,\n\n#FX 1 no effect\nif (/fx/id == 1,\n    progn(\n      /new/r = 100,\n      /new/g = 100,\n      /new/b = 100\n    )\n),\n\n#FX 2 delay\nif (/fx/id == 2,\n    progn(\n      /new/r = 220,\n      /new/g = 160,\n      /new/b = 200\n    )\n),\n\n#FX 3 chorus\nif (/fx/id == 3,\n    progn(\n      /new/r = 250,\n      /new/g = 180,\n      /new/b = 40\n    )\n),\n\n#FX 4 flanger\nif (/fx/id == 4,\n    progn(\n      /new/r = 250,\n      /new/g = 60,\n      /new/b = 200\n    )\n),\n\n#FX 5 delay + chorus + flanger\nif (/fx/id == 5,\n    progn(\n      /new/r = 80,\n      /new/g = 160,\n      /new/b = 180\n    )\n),\n\n#FX 6 pitch up\nif (/fx/id == 6,\n    progn(\n      /new/r = 25,\n      /new/g = 25,\n      /new/b = 200\n    )\n),\n#FX 7 pitch down\nif (/fx/id == 7,\n    progn(\n      /new/r = 255,\n      /new/g = 100,\n      /new/b = 25\n    )\n),\n\n#FX 8 speed up\nif (/fx/id == 8,\n    progn(\n      /new/r = 100,\n      /new/g = 180,\n      /new/b = 180\n    )\n),\n\n#FX 9 slow down\nif (/fx/id == 9,\n    progn(\n      /new/r = 255,\n      /new/g = 140,\n      /new/b = 35\n    )\n),\n\n#FX 10 vocoder\nif (/fx/id == 10,\n    progn(\n      /new/r = 255,\n      /new/g = 235,\n      /new/b = 235\n    )\n),\n/fx_color = [/new/r, /new/g, /new/b]"
				}

			}
, 			{
				"box" : 				{
					"id" : "obj-122",
					"maxclass" : "newobj",
					"numinlets" : 1,
					"numoutlets" : 1,
					"outlettype" : [ "" ],
					"patching_rect" : [ 347.0, 128.5, 56.0, 22.0 ],
					"style" : "",
					"text" : "zsa.fund"
				}

			}
, 			{
				"box" : 				{
					"fontname" : "Arial",
					"fontsize" : 12.0,
					"id" : "obj-125",
					"maxclass" : "newobj",
					"numinlets" : 2,
					"numoutlets" : 1,
					"outlettype" : [ "" ],
					"patching_rect" : [ 347.0, 94.5, 162.0, 22.0 ],
					"style" : "",
					"text" : "zsa.easy_freqpeak~ 2048 4"
				}

			}
, 			{
				"box" : 				{
					"id" : "obj-128",
					"maxclass" : "newobj",
					"numinlets" : 2,
					"numoutlets" : 1,
					"outlettype" : [ "FullPacket" ],
					"patching_rect" : [ 168.0, 586.637695, 50.0, 22.0 ],
					"style" : "",
					"text" : "o.union"
				}

			}
, 			{
				"box" : 				{
					"id" : "obj-133",
					"maxclass" : "newobj",
					"numinlets" : 1,
					"numoutlets" : 1,
					"outlettype" : [ "FullPacket" ],
					"patching_rect" : [ 14.0, 521.0, 59.0, 22.0 ],
					"style" : "",
					"text" : "o.pack /y"
				}

			}
, 			{
				"box" : 				{
					"id" : "obj-136",
					"maxclass" : "newobj",
					"numinlets" : 1,
					"numoutlets" : 1,
					"outlettype" : [ "FullPacket" ],
					"patching_rect" : [ 347.0, 521.0, 59.0, 22.0 ],
					"style" : "",
					"text" : "o.pack /x"
				}

			}
, 			{
				"box" : 				{
					"comment" : "",
					"id" : "obj-2",
					"index" : 1,
					"maxclass" : "inlet",
					"numinlets" : 0,
					"numoutlets" : 1,
					"outlettype" : [ "signal" ],
					"patching_rect" : [ 221.0, 29.0, 30.0, 30.0 ],
					"style" : ""
				}

			}
, 			{
				"box" : 				{
					"comment" : "",
					"id" : "obj-7",
					"index" : 2,
					"maxclass" : "inlet",
					"numinlets" : 0,
					"numoutlets" : 1,
					"outlettype" : [ "" ],
					"patching_rect" : [ 714.0, 29.0, 30.0, 30.0 ],
					"style" : ""
				}

			}
 ],
		"lines" : [ 			{
				"patchline" : 				{
					"color" : [ 0.470588, 0.113725, 0.545098, 1.0 ],
					"destination" : [ "obj-220", 1 ],
					"source" : [ "obj-1", 0 ]
				}

			}
, 			{
				"patchline" : 				{
					"color" : [ 1.0, 0.0, 0.0, 0.901961 ],
					"destination" : [ "obj-19", 0 ],
					"midpoints" : [ 356.5, 153.25, 356.5, 153.25 ],
					"source" : [ "obj-122", 0 ]
				}

			}
, 			{
				"patchline" : 				{
					"color" : [ 1.0, 0.0, 0.0, 0.901961 ],
					"destination" : [ "obj-122", 0 ],
					"source" : [ "obj-125", 0 ]
				}

			}
, 			{
				"patchline" : 				{
					"color" : [ 0.0, 0.0, 0.0, 1.0 ],
					"destination" : [ "obj-15", 0 ],
					"source" : [ "obj-128", 0 ]
				}

			}
, 			{
				"patchline" : 				{
					"color" : [ 0.0, 0.0, 1.0, 0.901961 ],
					"destination" : [ "obj-128", 0 ],
					"midpoints" : [ 23.5, 569.0, 177.5, 569.0 ],
					"source" : [ "obj-133", 0 ]
				}

			}
, 			{
				"patchline" : 				{
					"color" : [ 1.0, 0.0, 0.0, 0.901961 ],
					"destination" : [ "obj-128", 1 ],
					"midpoints" : [ 356.5, 569.0, 208.5, 569.0 ],
					"source" : [ "obj-136", 0 ]
				}

			}
, 			{
				"patchline" : 				{
					"color" : [ 1.0, 0.0, 0.0, 0.901961 ],
					"destination" : [ "obj-136", 0 ],
					"source" : [ "obj-14", 0 ]
				}

			}
, 			{
				"patchline" : 				{
					"color" : [ 0.0, 0.0, 0.0, 1.0 ],
					"destination" : [ "obj-3", 0 ],
					"source" : [ "obj-15", 0 ]
				}

			}
, 			{
				"patchline" : 				{
					"color" : [ 1.0, 0.0, 0.0, 0.901961 ],
					"destination" : [ "obj-14", 0 ],
					"source" : [ "obj-16", 0 ]
				}

			}
, 			{
				"patchline" : 				{
					"color" : [ 1.0, 0.0, 0.0, 0.901961 ],
					"destination" : [ "obj-18", 1 ],
					"midpoints" : [ 367.0, 483.0, 664.0, 483.0, 664.0, 201.0, 387.5, 201.0 ],
					"source" : [ "obj-16", 1 ]
				}

			}
, 			{
				"patchline" : 				{
					"color" : [ 1.0, 0.0, 0.0, 0.901961 ],
					"destination" : [ "obj-20", 0 ],
					"source" : [ "obj-18", 0 ]
				}

			}
, 			{
				"patchline" : 				{
					"color" : [ 0.0, 0.0, 0.0, 1.0 ],
					"destination" : [ "obj-25", 0 ],
					"source" : [ "obj-188", 0 ]
				}

			}
, 			{
				"patchline" : 				{
					"color" : [ 1.0, 0.0, 0.0, 0.901961 ],
					"destination" : [ "obj-18", 0 ],
					"source" : [ "obj-19", 0 ]
				}

			}
, 			{
				"patchline" : 				{
					"color" : [ 1.0, 0.0, 0.0, 0.901961 ],
					"destination" : [ "obj-125", 0 ],
					"midpoints" : [ 230.5, 80.0, 356.5, 80.0 ],
					"order" : 0,
					"source" : [ "obj-2", 0 ]
				}

			}
, 			{
				"patchline" : 				{
					"color" : [ 0.0, 0.0, 1.0, 0.901961 ],
					"destination" : [ "obj-4", 0 ],
					"midpoints" : [ 230.5, 80.0, 23.5, 80.0 ],
					"order" : 1,
					"source" : [ "obj-2", 0 ]
				}

			}
, 			{
				"patchline" : 				{
					"color" : [ 1.0, 0.0, 0.0, 0.901961 ],
					"destination" : [ "obj-16", 0 ],
					"source" : [ "obj-20", 0 ]
				}

			}
, 			{
				"patchline" : 				{
					"color" : [ 0.470588, 0.113725, 0.545098, 1.0 ],
					"destination" : [ "obj-1", 0 ],
					"source" : [ "obj-209", 0 ]
				}

			}
, 			{
				"patchline" : 				{
					"color" : [ 0.470588, 0.113725, 0.545098, 1.0 ],
					"destination" : [ "obj-209", 0 ],
					"source" : [ "obj-214", 0 ]
				}

			}
, 			{
				"patchline" : 				{
					"color" : [ 0.0, 0.0, 1.0, 0.901961 ],
					"destination" : [ "obj-223", 1 ],
					"midpoints" : [ 34.0, 483.0, 328.0, 483.0, 328.0, 201.0, 54.5, 201.0 ],
					"source" : [ "obj-219", 1 ]
				}

			}
, 			{
				"patchline" : 				{
					"color" : [ 0.0, 0.0, 0.976471, 0.901961 ],
					"destination" : [ "obj-227", 0 ],
					"source" : [ "obj-219", 0 ]
				}

			}
, 			{
				"patchline" : 				{
					"color" : [ 0.0, 0.0, 0.0, 1.0 ],
					"destination" : [ "obj-188", 0 ],
					"source" : [ "obj-220", 0 ]
				}

			}
, 			{
				"patchline" : 				{
					"color" : [ 0.0, 0.0, 1.0, 0.901961 ],
					"destination" : [ "obj-226", 0 ],
					"source" : [ "obj-223", 0 ]
				}

			}
, 			{
				"patchline" : 				{
					"color" : [ 0.0, 0.0, 1.0, 0.901961 ],
					"destination" : [ "obj-223", 0 ],
					"source" : [ "obj-225", 0 ]
				}

			}
, 			{
				"patchline" : 				{
					"color" : [ 0.0, 0.0, 1.0, 0.901961 ],
					"destination" : [ "obj-219", 0 ],
					"source" : [ "obj-226", 0 ]
				}

			}
, 			{
				"patchline" : 				{
					"color" : [ 0.0, 0.0, 1.0, 0.901961 ],
					"destination" : [ "obj-133", 0 ],
					"source" : [ "obj-227", 0 ]
				}

			}
, 			{
				"patchline" : 				{
					"color" : [ 0.0, 0.0, 0.0, 1.0 ],
					"destination" : [ "obj-26", 0 ],
					"source" : [ "obj-25", 0 ]
				}

			}
, 			{
				"patchline" : 				{
					"color" : [ 0.0, 0.0, 0.0, 1.0 ],
					"destination" : [ "obj-220", 0 ],
					"midpoints" : [ 177.5, 1446.0, 692.5, 1446.0 ],
					"source" : [ "obj-3", 0 ]
				}

			}
, 			{
				"patchline" : 				{
					"color" : [ 0.0, 0.0, 1.0, 0.901961 ],
					"destination" : [ "obj-225", 0 ],
					"source" : [ "obj-4", 0 ]
				}

			}
, 			{
				"patchline" : 				{
					"color" : [ 0.470588, 0.113725, 0.545098, 1.0 ],
					"destination" : [ "obj-214", 0 ],
					"source" : [ "obj-7", 0 ]
				}

			}
 ]
	}

}
